<?xml version="1.0" encoding="UTF-8"?>
<svg version="1.1" xmlns="http://www.w3.org/2000/svg" width="175" height="44">
<path d="M0 0 C6.7394507 0.63382929 12.99550621 2.22297453 19.5 4.0625 C20.51320313 4.34416016 21.52640625 4.62582031 22.5703125 4.91601562 C25.04832734 5.60565183 27.52478 6.30041189 30 7 C30 8.32 30 9.64 30 11 C33.58097109 11.89667317 33.58097109 11.89667317 37.1875 11.4375 C37.785625 11.293125 38.38375 11.14875 39 11 C39.66 11.66 40.32 12.32 41 13 C40.625 15.625 40.625 15.625 40 18 C39.071875 18.268125 38.14375 18.53625 37.1875 18.8125 C33.49109198 20.18073186 33.49109198 20.18073186 31 23 C29.79950593 26.10007201 29.79950593 26.10007201 29 29 C27.88625 29.12375 27.88625 29.12375 26.75 29.25 C23.3570942 30.17533795 22.16030318 31.24375111 20 34 C18.73215876 37.13350717 18.73215876 37.13350717 18 40 C16.35 40 14.7 40 13 40 C12 35 12 35 11 30 C10.01 30.33 9.02 30.66 8 31 C6.85559209 27.068761 5.71640793 23.13604996 4.58203125 19.2019043 C4.19544252 17.86392458 3.80743188 16.52635484 3.41796875 15.18920898 C2.85823398 13.2665486 2.30404252 11.34227716 1.75 9.41796875 C1.41484375 8.26063232 1.0796875 7.1032959 0.734375 5.91088867 C0 3 0 3 0 0 Z " fill="#4FC6A6" transform="translate(7,2)"/>
<path d="M0 0 C1.1240625 -0.0103125 2.248125 -0.020625 3.40625 -0.03125 C6.5 0.5 6.5 0.5 8.875 2.03125 C11.12505593 5.4496042 11.08599937 8.54402918 11 12.5 C11.01546875 13.2115625 11.0309375 13.923125 11.046875 14.65625 C11.02181081 18.01485086 10.72334233 20.1617959 8.859375 22.984375 C5.79973312 24.94984031 3.85713835 24.9068321 0.25 24.75 C-0.82765625 24.71390625 -1.9053125 24.6778125 -3.015625 24.640625 C-4.24539062 24.57101563 -4.24539062 24.57101563 -5.5 24.5 C-6.16 23.18 -6.82 21.86 -7.5 20.5 C-4.53 20.5 -1.56 20.5 1.5 20.5 C1.17 19.51 0.84 18.52 0.5 17.5 C0.17 17.83 -0.16 18.16 -0.5 18.5 C-3.90932922 18.87881436 -5.87817286 18.86000519 -8.875 17.125 C-11.31755765 13.17932995 -11.48387975 9.0142718 -10.5 4.5 C-7.51448431 0.30879528 -5.00587537 -0.04592546 0 0 Z M-1.5 4.5 C-1.5 7.8 -1.5 11.1 -1.5 14.5 C-0.51 14.5 0.48 14.5 1.5 14.5 C1.5 11.2 1.5 7.9 1.5 4.5 C0.51 4.5 -0.48 4.5 -1.5 4.5 Z " fill="#000000" transform="translate(95.5,10.5)"/>
<path d="M0 0 C3.073125 -0.061875 6.14625 -0.12375 9.3125 -0.1875 C10.27712158 -0.21481201 11.24174316 -0.24212402 12.2355957 -0.27026367 C13.38161255 -0.28150269 13.38161255 -0.28150269 14.55078125 -0.29296875 C15.72120972 -0.31653442 15.72120972 -0.31653442 16.9152832 -0.34057617 C19.57287837 0.09359004 20.42672515 0.83955816 22 3 C22.29834873 5.76118825 22.41911153 8.24548016 22.375 11 C22.38660156 11.72445313 22.39820312 12.44890625 22.41015625 13.1953125 C22.3809223 18.47691245 22.3809223 18.47691245 20.75317383 20.7121582 C18.52631311 22.34795967 17.2934674 22.34819062 14.55078125 22.29296875 C13.78677002 22.28547607 13.02275879 22.2779834 12.2355957 22.27026367 C10.78866333 22.22929565 10.78866333 22.22929565 9.3125 22.1875 C4.7028125 22.0946875 4.7028125 22.0946875 0 22 C0 14.74 0 7.48 0 0 Z M8 4 C8 8.62 8 13.24 8 18 C9.98 18 11.96 18 14 18 C14 13.38 14 8.76 14 4 C12.02 4 10.04 4 8 4 Z " fill="#000000" transform="translate(50,7)"/>
<path d="M0 0 C2.24893954 -0.10823773 4.49937575 -0.18569645 6.75 -0.25 C8.00296875 -0.29640625 9.2559375 -0.3428125 10.546875 -0.390625 C14 0 14 0 16.4375 1.5625 C18.58620255 4.91447598 18.39613718 7.3042961 18.25 11.25 C18.21390625 12.51328125 18.1778125 13.7765625 18.140625 15.078125 C18.07101563 16.52445313 18.07101563 16.52445313 18 18 C14.87507749 18.05791844 11.75029234 18.09356746 8.625 18.125 C7.73554688 18.14175781 6.84609375 18.15851562 5.9296875 18.17578125 C5.07890625 18.18222656 4.228125 18.18867188 3.3515625 18.1953125 C2.17327881 18.21102295 2.17327881 18.21102295 0.97119141 18.22705078 C-1 18 -1 18 -3 16 C-3.25 13 -3.25 13 -3 10 C-1 8 -1 8 1.3828125 7.8046875 C2.28773438 7.82789063 3.19265625 7.85109375 4.125 7.875 C5.49011719 7.90207031 5.49011719 7.90207031 6.8828125 7.9296875 C7.58148438 7.95289063 8.28015625 7.97609375 9 8 C9 6.68 9 5.36 9 4 C5.7 4 2.4 4 -1 4 C-0.67 2.68 -0.34 1.36 0 0 Z M5 11 C5 11.99 5 12.98 5 14 C6.32 14 7.64 14 9 14 C9 13.01 9 12.02 9 11 C7.68 11 6.36 11 5 11 Z " fill="#000000" transform="translate(137,11)"/>
<path d="M0 0 C0.5775 0.165 1.155 0.33 1.75 0.5 C4.26664369 1.14462031 4.26664369 1.14462031 8 1 C8 1.66 8 2.32 8 3 C10.475 3.495 10.475 3.495 13 4 C13.33 4.99 13.66 5.98 14 7 C14.33 6.34 14.66 5.68 15 5 C14.10636395 2.39068734 14.10636395 2.39068734 13 0 C16.875 0.875 16.875 0.875 18 2 C18.33 1.34 18.66 0.68 19 0 C19.99 0 20.98 0 22 0 C21.7215625 1.60875 21.7215625 1.60875 21.4375 3.25 C21.0695432 6.40391546 20.95534657 8.09818492 22 11 C21.01 11 20.02 11 19 11 C18.505 10.01 18.505 10.01 18 9 C17.34 9.66 16.68 10.32 16 11 C12.875 11.125 12.875 11.125 10 11 C9.67 9.02 9.34 7.04 9 5 C8.34 6.98 7.68 8.96 7 11 C4.69 11 2.38 11 0 11 C0 8.69 0 6.38 0 4 C-0.66 4 -1.32 4 -2 4 C-2.33 5.98 -2.66 7.96 -3 10 C-6.15680299 10.84181413 -8.72572803 11 -12 11 C-12.66 8.36 -13.32 5.72 -14 3 C-13.01 3 -12.02 3 -11 3 C-10.67 3.66 -10.34 4.32 -10 5 C-9.67 4.34 -9.34 3.68 -9 3 C-8.01 3 -7.02 3 -6 3 C-5.67 3.66 -5.34 4.32 -5 5 C-4.67 4.34 -4.34 3.68 -4 3 C-2.68 3 -1.36 3 0 3 C0 2.01 0 1.02 0 0 Z M3 4 C3 5.98 3 7.96 3 10 C3.33 10 3.66 10 4 10 C4 8.02 4 6.04 4 4 C3.67 4 3.34 4 3 4 Z " fill="#1515F7" transform="translate(146,30)"/>
<path d="M0 0 C6.7394507 0.63382929 12.99550621 2.22297453 19.5 4.0625 C20.51320313 4.34416016 21.52640625 4.62582031 22.5703125 4.91601562 C25.04832734 5.60565183 27.52478 6.30041189 30 7 C30 8.32 30 9.64 30 11 C29.01 11.33 28.02 11.66 27 12 C26.67 11.505 26.34 11.01 26 10.5 C23.35104746 8.5132856 21.2786619 8.89522251 18.0703125 9.01953125 C15.09606616 8.99147232 12.70419918 8.18720939 10 7 C9.67 6.34 9.34 5.68 9 5 C7.68 5.33 6.36 5.66 5 6 C5.33 6.99 5.66 7.98 6 9 C6.66 9.33 7.32 9.66 8 10 C8.6328125 12.14453125 8.6328125 12.14453125 9.125 14.8125 C9.29257812 15.68519531 9.46015625 16.55789062 9.6328125 17.45703125 C10 20 10 20 10 24 C10.66 24.33 11.32 24.66 12 25 C11.67 26.65 11.34 28.3 11 30 C10.01 30.33 9.02 30.66 8 31 C6.85559209 27.068761 5.71640793 23.13604996 4.58203125 19.2019043 C4.19544252 17.86392458 3.80743188 16.52635484 3.41796875 15.18920898 C2.85823398 13.2665486 2.30404252 11.34227716 1.75 9.41796875 C1.41484375 8.26063232 1.0796875 7.1032959 0.734375 5.91088867 C0 3 0 3 0 0 Z " fill="#1D1042" transform="translate(7,2)"/>
<path d="M0 0 C2.97 0 5.94 0 9 0 C9 6.93 9 13.86 9 21 C9.99 21 10.98 21 12 21 C12 22.32 12 23.64 12 25 C4.64670659 25.36766467 4.64670659 25.36766467 1.890625 23.80078125 C0 22 0 22 -0.45410156 19.63989258 C-0.4331543 18.73392334 -0.41220703 17.8279541 -0.390625 16.89453125 C-0.37128906 15.42016602 -0.37128906 15.42016602 -0.3515625 13.91601562 C-0.31804687 12.89185547 -0.28453125 11.86769531 -0.25 10.8125 C-0.23195312 9.77673828 -0.21390625 8.74097656 -0.1953125 7.67382812 C-0.14814437 5.11495716 -0.08234057 2.55794158 0 0 Z " fill="#000000" transform="translate(157,4)"/>
<path d="M0 0 C0 1.65 0 3.3 0 5 C1.65 5 3.3 5 5 5 C5 6.32 5 7.64 5 9 C3.35 9 1.7 9 0 9 C0 12.3 0 15.6 0 19 C1.65 19 3.3 19 5 19 C5 20.32 5 21.64 5 23 C3.39667209 23.08121924 1.79215974 23.13929134 0.1875 23.1875 C-1.15248047 23.23970703 -1.15248047 23.23970703 -2.51953125 23.29296875 C-5 23 -5 23 -6.8125 21.84375 C-8.47611355 19.26077106 -8.29488288 17.35501492 -8.1875 14.3125 C-8.16042969 13.31863281 -8.13335937 12.32476562 -8.10546875 11.30078125 C-8.07066406 10.54152344 -8.03585938 9.78226563 -8 9 C-8.66 9 -9.32 9 -10 9 C-10 7.68 -10 6.36 -10 5 C-9.34 5 -8.68 5 -8 5 C-7.67 4.01 -7.34 3.02 -7 2 C-4.56723614 0.81480735 -2.71982714 0 0 0 Z " fill="#000000" transform="translate(128,6)"/>
<path d="M0 0 C0.66 0.33 1.32 0.66 2 1 C2 1.66 2 2.32 2 3 C2.99 2.67 3.98 2.34 5 2 C7.0241109 2.25702996 9.04820952 2.51645408 11.06640625 2.81640625 C13.24406623 3.02317396 14.90620212 2.56371481 17 2 C17.66 2.66 18.32 3.32 19 4 C18.625 6.625 18.625 6.625 18 9 C17.071875 9.268125 16.14375 9.53625 15.1875 9.8125 C11.49494953 11.18050831 11.49494953 11.18050831 9 14 C8.27802838 16.60611077 8.27802838 16.60611077 8 19 C7.67 19 7.34 19 7 19 C7 17.35 7 15.7 7 14 C6.236875 14.0825 5.47375 14.165 4.6875 14.25 C2 14 2 14 0.125 12.3125 C-1.29999345 9.38334679 -0.77499866 8.09999466 0 5 C-0.2981424 3.65835921 -0.62243192 2.32148827 -1 1 C-0.67 0.67 -0.34 0.34 0 0 Z " fill="#45A086" transform="translate(29,11)"/>
<path d="M0 0 C2.97 0 5.94 0 9 0 C9 5.94 9 11.88 9 18 C6.03 18 3.06 18 0 18 C0 12.06 0 6.12 0 0 Z " fill="#000000" transform="translate(108,11)"/>
<path d="M0 0 C2.97 0 5.94 0 9 0 C9 5.94 9 11.88 9 18 C6.03 18 3.06 18 0 18 C0 12.06 0 6.12 0 0 Z " fill="#000000" transform="translate(74,11)"/>
<path d="M0 0 C1.11177467 0.88637378 2.21406614 1.7846465 3.3125 2.6875 C3.92738281 3.18636719 4.54226562 3.68523438 5.17578125 4.19921875 C7.3765372 6.37169947 8.74481958 8.15932853 10 11 C9.63671875 14.11328125 9.63671875 14.11328125 8.6875 17.3125 C8.38199219 18.38113281 8.07648437 19.44976563 7.76171875 20.55078125 C7.51035156 21.35902344 7.25898438 22.16726562 7 23 C6.34 23 5.68 23 5 23 C5 23.66 5 24.32 5 25 C5.99 25 6.98 25 8 25 C8.33 26.65 8.66 28.3 9 30 C7.35 30 5.7 30 4 30 C2.67713754 25.03926578 2.91106803 20.08888488 3 15 C1.68 14.34 0.36 13.68 -1 13 C-0.649375 11.96875 -0.29875 10.9375 0.0625 9.875 C0.99513623 6.0201036 0.92640921 3.79827774 0 0 Z " fill="#46929A" transform="translate(16,12)"/>
<path d="M0 0 C1.32 0.33 2.64 0.66 4 1 C4 1.66 4 2.32 4 3 C5.12148438 3.09087891 5.12148438 3.09087891 6.265625 3.18359375 C7.74289063 3.30927734 7.74289063 3.30927734 9.25 3.4375 C10.71179688 3.55931641 10.71179688 3.55931641 12.203125 3.68359375 C16.97151538 4.22303456 16.97151538 4.22303456 19 5 C19.33 5.99 19.66 6.98 20 8 C19.34 8 18.68 8 18 8 C17.34 7.34 16.68 6.68 16 6 C15.67 6.99 15.34 7.98 15 9 C15.66 9.33 16.32 9.66 17 10 C16.67 10.66 16.34 11.32 16 12 C15.34 12 14.68 12 14 12 C13.67 12.66 13.34 13.32 13 14 C12.67 13.01 12.34 12.02 12 11 C10.20067421 9.93283296 10.20067421 9.93283296 8 9 C6.32665961 8.01120795 4.65848177 7.01351664 3 6 C3.66 8.64 4.32 11.28 5 14 C4.34 14 3.68 14 3 14 C2.87625 12.081875 2.87625 12.081875 2.75 10.125 C2.54130069 7.94666582 2.54130069 7.94666582 2 6 C0.07935207 4.4100567 0.07935207 4.4100567 -2 4 C-1.34 2.68 -0.68 1.36 0 0 Z " fill="#4B9CA1" transform="translate(13,6)"/>
<path d="M0 0 C3 0.25 3 0.25 5 2.25 C5 3.24 5 4.23 5 5.25 C4.01 4.92 3.02 4.59 2 4.25 C1.67 3.59 1.34 2.93 1 2.25 C0.34 2.25 -0.32 2.25 -1 2.25 C-1.93423645 5.26031744 -2.04449911 6.11650268 -1 9.25 C-0.34 9.25 0.32 9.25 1 9.25 C1.33 8.59 1.66 7.93 2 7.25 C1.34 6.92 0.68 6.59 0 6.25 C1.175625 6.3428125 1.175625 6.3428125 2.375 6.4375 C3.24125 6.375625 4.1075 6.31375 5 6.25 C5.66 5.26 6.32 4.27 7 3.25 C10.125 3.0625 10.125 3.0625 13 3.25 C12.34 3.91 11.68 4.57 11 5.25 C10.28591666 7.23356483 9.61382258 9.23315437 9 11.25 C7.68 11.25 6.36 11.25 5 11.25 C4.32839844 11.29640625 3.65679687 11.3428125 2.96484375 11.390625 C-2.46977305 11.68382205 -2.46977305 11.68382205 -5.0625 9.5625 C-6.24408113 6.6479332 -6.00932746 5.20034182 -5 2.25 C-3 0.25 -3 0.25 0 0 Z " fill="#1515F7" transform="translate(111,29.75)"/>
<path d="M0 0 C0.763125 0.474375 1.52625 0.94875 2.3125 1.4375 C4.96410548 3.10106097 4.96410548 3.10106097 8 4 C8.6875 6.0625 8.6875 6.0625 9 8 C7.88625 8.12375 7.88625 8.12375 6.75 8.25 C3.38573588 9.16752658 2.12940379 10.26219512 0 13 C-0.79681318 15.64184541 -0.79681318 15.64184541 -1 18 C-1.33 18 -1.66 18 -2 18 C-3.20491686 12.74218097 -2.88875351 9.72366258 -0.69140625 4.796875 C0.17955752 2.85423765 0.17955752 2.85423765 0 0 Z " fill="#3E7A7E" transform="translate(27,23)"/>
<path d="M0 0 C0.66 0.33 1.32 0.66 2 1 C2 1.66 2 2.32 2 3 C2.99 2.67 3.98 2.34 5 2 C7.00875442 2.27571139 9.01178687 2.60235737 11 3 C10.67 4.32 10.34 5.64 10 7 C5.545 7.495 5.545 7.495 1 8 C1.33 9.65 1.66 11.3 2 13 C0.4375 11.8125 0.4375 11.8125 -1 10 C-0.625 7.5625 -0.625 7.5625 0 5 C-0.2981424 3.65835921 -0.62243192 2.32148827 -1 1 C-0.67 0.67 -0.34 0.34 0 0 Z " fill="#3A697E" transform="translate(29,11)"/>
<path d="M0 0 C2.5625 0.1875 2.5625 0.1875 4.5625 2.1875 C4.00694444 6.74305556 4.00694444 6.74305556 2.5625 8.1875 C0.125 8.375 0.125 8.375 -2.4375 8.1875 C-3.0975 7.5275 -3.7575 6.8675 -4.4375 6.1875 C-3.71780303 0.28598485 -3.71780303 0.28598485 0 0 Z M-0.4375 1.1875 C-0.7675 2.8375 -1.0975 4.4875 -1.4375 6.1875 C-0.4475 6.1875 0.5425 6.1875 1.5625 6.1875 C1.2325 4.5375 0.9025 2.8875 0.5625 1.1875 C0.2325 1.1875 -0.0975 1.1875 -0.4375 1.1875 Z " fill="#1515F7" transform="translate(127.4375,32.8125)"/>
<path d="M0 0 C1.42944945 2.35438733 2.08661261 3.48032433 1.625 6.25 C1.41875 6.8275 1.2125 7.405 1 8 C1.99 8 2.98 8 4 8 C4.33 9.65 4.66 11.3 5 13 C3.35 13 1.7 13 0 13 C-0.98248196 8.94726192 -1.16017882 5.16464926 -1 1 C-0.67 0.67 -0.34 0.34 0 0 Z " fill="#418084" transform="translate(20,29)"/>
<path d="M0 0 C1.32 0 2.64 0 4 0 C3.01 3.96 2.02 7.92 1 12 C-1.8086289 9.1913711 -1.72711179 6.88865706 -2 3 C-1.34 2.01 -0.68 1.02 0 0 Z " fill="#201F4E" transform="translate(22,23)"/>
<path d="M0 0 C6.52307692 0.49230769 6.52307692 0.49230769 8.9375 3.0625 C9.288125 3.701875 9.63875 4.34125 10 5 C9.34 6.32 8.68 7.64 8 9 C7.67 8.01 7.34 7.02 7 6 C6.38125 5.690625 5.7625 5.38125 5.125 5.0625 C2.59402625 3.79701313 1.55151442 2.32727163 0 0 Z " fill="#201E4E" transform="translate(18,11)"/>
<path d="M0 0 C2.97 0 5.94 0 9 0 C9 1.32 9 2.64 9 4 C6.03 4 3.06 4 0 4 C0 2.68 0 1.36 0 0 Z " fill="#000000" transform="translate(108,4)"/>
<path d="M0 0 C2.97 0 5.94 0 9 0 C9 1.32 9 2.64 9 4 C6.03 4 3.06 4 0 4 C0 2.68 0 1.36 0 0 Z " fill="#000000" transform="translate(74,4)"/>
<path d="M0 0 C1.32 0.33 2.64 0.66 4 1 C4 4 4 4 2.6875 5.38671875 C1.125 6.59114583 -0.4375 7.79557292 -2 9 C-1.34 6.03 -0.68 3.06 0 0 Z " fill="#1C1348" transform="translate(26,27)"/>
<path d="M0 0 C-2.3125 2.5 -2.3125 2.5 -5 5 C-5.99 5 -6.98 5 -8 5 C-8.33 3.68 -8.66 2.36 -9 1 C-5.57367167 -0.61798838 -3.61944899 -1.34053666 0 0 Z " fill="#1C1348" transform="translate(41,20)"/>
<path d="M0 0 C2.31 1.98 4.62 3.96 7 6 C6.01 7.485 6.01 7.485 5 9 C4.01 9 3.02 9 2 9 C1.34 6.03 0.68 3.06 0 0 Z " fill="#1C1147" transform="translate(16,12)"/>
<path d="M0 0 C1.32 0.33 2.64 0.66 4 1 C4.33 2.65 4.66 4.3 5 6 C3.35 6 1.7 6 0 6 C0 4.02 0 2.04 0 0 Z " fill="#407181" transform="translate(43,13)"/>
<path d="M0 0 C2.64 0.33 5.28 0.66 8 1 C8 1.66 8 2.32 8 3 C5.36 3.33 2.72 3.66 0 4 C0 2.68 0 1.36 0 0 Z " fill="#1D1147" transform="translate(31,15)"/>
<path d="M0 0 C0.33 0.99 0.66 1.98 1 3 C0.34 3 -0.32 3 -1 3 C-1.66 2.34 -2.32 1.68 -3 1 C-3.33 1.99 -3.66 2.98 -4 4 C-3.34 4.33 -2.68 4.66 -2 5 C-2.66 5.66 -3.32 6.32 -4 7 C-4 6.34 -4 5.68 -4 5 C-4.66 4.67 -5.32 4.34 -6 4 C-7.03145371 2.69084721 -8.03542166 1.35917857 -9 0 C-5.69903842 -0.8252404 -3.1967 -1.37001429 0 0 Z " fill="#50BFAE" transform="translate(32,11)"/>
<path d="M0 0 C-1.7015625 0.6496875 -1.7015625 0.6496875 -3.4375 1.3125 C-5.2009375 2.1478125 -5.2009375 2.1478125 -7 3 C-7.33 3.99 -7.66 4.98 -8 6 C-10 2.25 -10 2.25 -10 0 C-6.33694766 -0.74926071 -3.57644848 -1.2380014 0 0 Z " fill="#47AD98" transform="translate(40,19)"/>
</svg>
